HIERARCHY
ROOT joint_Root
{
  OFFSET 0 0 0
  CHANNELS 6 Xposition Yposition Zposition Zrotation Xrotation Yrotation
  JOINT Hips
  {
    OFFSET 0 93.9241 -3
    CHANNELS 6 Xposition Yposition Zposition Zrotation Xrotation Yrotation
    JOINT Spine
    {
      OFFSET 15.7357 0 0
      CHANNELS 6 Xposition Yposition Zposition Zrotation Xrotation Yrotation
      JOINT Chest
      {
        OFFSET 8.98455 -0.406207 0
        CHANNELS 6 Xposition Yposition Zposition Zrotation Xrotation Yrotation
        JOINT Neck
        {
          OFFSET 16.3773 0 0
          CHANNELS 6 Xposition Yposition Zposition Zrotation Xrotation Yrotation
          JOINT Head
          {
            OFFSET 6.45672 0 0
            CHANNELS 6 Xposition Yposition Zposition Zrotation Xrotation Yrotation
            End Site
            {
              OFFSET 0 0 0
            }
          }
        }
        JOINT Shoulder_L
        {
          OFFSET 12.9942 -0.242716 4.98039
          CHANNELS 6 Xposition Yposition Zposition Zrotation Xrotation Yrotation
          JOINT UpperArm_L
          {
            OFFSET 5.34809 0 0
            CHANNELS 6 Xposition Yposition Zposition Zrotation Xrotation Yrotation
            JOINT LowerArm_L
            {
              OFFSET 24.3286 1.87007e-05 0
              CHANNELS 6 Xposition Yposition Zposition Zrotation Xrotation Yrotation
              JOINT Hand_L
              {
                OFFSET 22.2916 0 0
                CHANNELS 6 Xposition Yposition Zposition Zrotation Xrotation Yrotation
                End Site
                {
                  OFFSET 0 0 0
                }
              }
            }
          }
        }
        JOINT Shoulder_R
        {
          OFFSET 12.9945 -0.242716 -4.98039
          CHANNELS 6 Xposition Yposition Zposition Zrotation Xrotation Yrotation
          JOINT UpperArm_R
          {
            OFFSET -5.34813 0 0
            CHANNELS 6 Xposition Yposition Zposition Zrotation Xrotation Yrotation
            JOINT LowerArm_R
            {
              OFFSET -24.3289 0.000322201 0
              CHANNELS 6 Xposition Yposition Zposition Zrotation Xrotation Yrotation
              JOINT Hand_R
              {
                OFFSET -22.2915 -0.000108084 0
                CHANNELS 6 Xposition Yposition Zposition Zrotation Xrotation Yrotation
                End Site
                {
                  OFFSET 0 0 0
                }
              }
            }
          }
        }
      }
    }
    JOINT UpperLeg_L
    {
      OFFSET -2.19248 -6.46944 0
      CHANNELS 6 Xposition Yposition Zposition Zrotation Xrotation Yrotation
      JOINT LowerLeg_L
      {
        OFFSET 39.0811 0 -1.23785e-05
        CHANNELS 6 Xposition Yposition Zposition Zrotation Xrotation Yrotation
        JOINT Foot_L
        {
          OFFSET 40.9854 0 -1.26872e-05
          CHANNELS 6 Xposition Yposition Zposition Zrotation Xrotation Yrotation
          JOINT Toes_L
          {
            OFFSET 11.7543 0 0
            CHANNELS 6 Xposition Yposition Zposition Zrotation Xrotation Yrotation
            End Site
            {
              OFFSET 0 0 0
            }
          }
        }
      }
    }
    JOINT UpperLeg_R
    {
      OFFSET -2.19251 6.46944 0
      CHANNELS 6 Xposition Yposition Zposition Zrotation Xrotation Yrotation
      JOINT LowerLeg_R
      {
        OFFSET -39.0811 -0.00228153 -0.0401928
        CHANNELS 6 Xposition Yposition Zposition Zrotation Xrotation Yrotation
        JOINT Foot_R
        {
          OFFSET -40.9854 0 0
          CHANNELS 6 Xposition Yposition Zposition Zrotation Xrotation Yrotation
          JOINT Toes_R
          {
            OFFSET -11.7543 0 0
            CHANNELS 6 Xposition Yposition Zposition Zrotation Xrotation Yrotation
            End Site
            {
              OFFSET 0 0 0
            }
          }
        }
      }
    }
  }
}
MOTION
Frames:	8
Frame Time:	0.0333333
0 0 0 0 0 -0 -4.14204 90.4483 -104.459 89.0576 3.79707 10.9919 15.7357 5.1072e-06 -5.51765e-07 96.7413 77.5046 -95.8187 8.98455 -0.406207 -4.3199e-07 17.0445 2.95928 1.40493 16.3773 -1.3905e-06 -6.99897e-07 0.100519 10.5803 0.526238 6.45672 -1.25837e-06 -1.02172e-07 2.33529 13.1548 -5.18567 12.9942 -0.242716 4.98039 -89.5601 -4.73478 -99.6857 5.34809 -7.22636e-06 -6.2814e-07 -83.1488 18.1503 -1.79817 24.3286 1.87007e-05 4.90208e-06 24.9674 -13.6794 -116.926 22.2916 -9.88446e-07 4.63217e-06 14.1939 5.28948 0.365136 12.9945 -0.242716 -4.98039 89.9949 -3.04759 -105.096 -5.34813 -1.25947e-06 -3.79883e-06 -79.6516 22.6373 4.60828 -24.3289 0.000322201 -8.65921e-06 21.8314 -8.62702 -110.528 -22.2915 -0.000108084 -4.47941e-06 22.5571 5.53213 -7.88797 -2.19248 -6.46944 -1.22534e-07 -176.641 1.98708 -14.3018 39.0811 -6.73843e-06 -1.23785e-05 -0.0495439 0.0254801 63.7335 40.9854 -6.48686e-06 -1.26872e-05 -8.27667 -0.882875 -44.7147 11.7543 -2.30145e-07 3.05095e-06 0.468624 -0.571414 -21.9632 -2.19251 6.46944 -1.45247e-06 -172.242 7.35771 174.562 -39.0811 -0.00228153 -0.0401928 0.171632 -0.257496 29.4937 -40.9854 7.72618e-06 5.99936e-06 7.48668 -6.2253 -64.2874 -11.7543 -5.6619e-06 -5.58687e-06 0.122572 -0.129021 -17.5647 
0 0 0 0 0 -0 -4.19829 90.6174 -103.548 89.2706 3.5166 10.5785 15.7357 5.1072e-06 -5.51765e-07 96.4698 77.4915 -95.4483 8.98455 -0.406207 -4.3199e-07 17.0816 2.8546 1.61772 16.3773 -1.3905e-06 -6.99897e-07 0.152686 10.7475 0.0751328 6.45672 -1.25837e-06 -1.02172e-07 2.45299 13.3126 -5.53765 12.9942 -0.242716 4.98039 -89.5696 -4.61675 -99.6683 5.34809 -7.22636e-06 -6.2814e-07 -83.0071 18.3031 -1.78049 24.3286 1.87007e-05 4.90208e-06 24.8814 -13.5875 -116.864 22.2916 -9.88446e-07 4.63217e-06 14.4936 5.29368 0.24876 12.9945 -0.242716 -4.98039 89.998 -2.94288 -105.04 -5.34813 -1.25947e-06 -3.79883e-06 -79.3925 22.5807 4.52523 -24.3289 0.000322201 -8.65921e-06 21.8202 -8.62632 -110.537 -22.2915 -0.000108084 -4.47941e-06 22.5878 5.53267 -7.91306 -2.19248 -6.46944 -1.22534e-07 -176.928 2.01163 -15.0884 39.0811 -6.73843e-06 -1.23785e-05 -0.0472095 0.0291739 60.2141 40.9854 -6.48686e-06 -1.26872e-05 -8.01557 -2.15082 -48.8953 11.7543 -2.30145e-07 3.05095e-06 0.443365 -0.537666 -21.6562 -2.19251 6.46944 -1.45247e-06 -172.392 7.26062 175.265 -39.0811 -0.00228153 -0.0401928 0.161065 -0.251731 28.6757 -40.9854 7.72618e-06 5.99936e-06 7.52117 -6.05191 -64.5579 -11.7543 -5.6619e-06 -5.58687e-06 0.114183 -0.120057 -17.4963 
0 0 0 0 0 -0 -4.22048 90.7653 -102.753 89.4091 3.37629 10.2148 15.7357 5.1072e-06 -5.51765e-07 96.225 77.4584 -95.0239 8.98455 -0.406207 -4.3199e-07 17.155 2.77214 1.98811 16.3773 -1.3905e-06 -6.99897e-07 0.312125 10.815 -0.445979 6.45672 -1.25837e-06 -1.02172e-07 2.6227 13.4365 -5.93735 12.9942 -0.242716 4.98039 -89.5862 -4.52105 -99.7651 5.34809 -7.22636e-06 -6.2814e-07 -83.0497 18.4372 -1.77284 24.3286 1.87007e-05 4.90208e-06 24.7268 -13.4557 -116.807 22.2916 -9.88446e-07 4.63217e-06 14.5061 5.29718 0.151359 12.9945 -0.242716 -4.98039 90.0084 -2.91055 -104.835 -5.34813 -1.25947e-06 -3.79883e-06 -78.9982 22.6718 4.4413 -24.3289 0.000322201 -8.65921e-06 21.7369 -8.61917 -110.601 -22.2915 -0.000108084 -4.47941e-06 22.4485 5.53052 -7.81821 -2.19248 -6.46944 -1.22534e-07 -177.153 2.19585 -15.69 39.0811 -6.73843e-06 -1.23785e-05 -0.0506203 0.037148 55.8135 40.9854 -6.48686e-06 -1.26872e-05 -7.17005 -3.04205 -51.7196 11.7543 -2.30145e-07 3.05095e-06 0.455848 -0.554301 -21.8076 -2.19251 6.46944 -1.45247e-06 -172.512 7.14517 175.893 -39.0811 -0.00228153 -0.0401928 0.144557 -0.232811 27.9034 -40.9854 7.72618e-06 5.99936e-06 7.48572 -6.02583 -64.7515 -11.7543 -5.6619e-06 -5.58687e-06 0.108722 -0.114212 -17.4518 
0 0 0 0 0 -0 -4.20726 90.8756 -102.016 89.589 3.32569 9.93121 15.7357 5.1072e-06 -5.51765e-07 95.9125 77.3743 -94.562 8.98455 -0.406207 -4.3199e-07 17.3338 2.66886 2.29916 16.3773 -1.3905e-06 -6.99897e-07 0.509346 10.9314 -0.957965 6.45672 -1.25837e-06 -1.02172e-07 2.73795 13.5321 -6.24956 12.9942 -0.242716 4.98039 -89.5828 -4.62352 -99.8384 5.34809 -7.22636e-06 -6.2814e-07 -83.1208 18.5992 -1.86691 24.3286 1.87007e-05 4.90208e-06 24.7366 -13.4326 -116.758 22.2916 -9.88446e-07 4.63217e-06 14.4825 5.30237 0.00647711 12.9945 -0.242716 -4.98039 90.0118 -2.82624 -104.76 -5.34813 -1.25947e-06 -3.79883e-06 -78.6334 22.7255 4.42814 -24.3289 0.000322201 -8.65921e-06 21.5646 -8.58998 -110.703 -22.2915 -0.000108084 -4.47941e-06 22.2783 5.53247 -7.90326 -2.19248 -6.46944 -1.22534e-07 -177.455 2.73824 -15.9703 39.0811 -6.73843e-06 -1.23785e-05 -0.0493981 0.0441474 50.5891 40.9854 -6.48686e-06 -1.26872e-05 -6.67925 -4.11776 -53.5953 11.7543 -2.30145e-07 3.05095e-06 0.46635 -0.568357 -21.9355 -2.19251 6.46944 -1.45247e-06 -172.665 6.90668 176.444 -39.0811 -0.00228153 -0.0401928 0.126811 -0.206935 27.3363 -40.9854 7.72618e-06 5.99936e-06 7.39024 -6.215 -64.977 -11.7543 -5.6619e-06 -5.58687e-06 0.0994784 -0.104381 -17.3766 
0 0 0 0 0 -0 -4.1569 90.9806 -101.335 89.7101 3.24649 9.58938 15.7357 5.1072e-06 -5.51765e-07 95.8773 77.2744 -94.3558 8.98455 -0.406207 -4.3199e-07 17.5304 2.68965 2.63391 16.3773 -1.3905e-06 -6.99897e-07 0.557272 10.9411 -1.42444 6.45672 -1.25837e-06 -1.02172e-07 2.97032 13.3801 -6.57705 12.9942 -0.242716 4.98039 -89.5843 -4.66716 -99.9042 5.34809 -7.22636e-06 -6.2814e-07 -82.9783 18.8622 -2.10744 24.3286 1.87007e-05 4.90208e-06 24.6939 -13.4251 -116.79 22.2916 -9.88446e-07 4.63217e-06 14.6692 5.30853 -0.167436 12.9945 -0.242716 -4.98039 90.0115 -2.78934 -104.764 -5.34813 -1.25947e-06 -3.79883e-06 -78.419 22.6839 4.46122 -24.3289 0.000322201 -8.65921e-06 21.6452 -8.62825 -110.709 -22.2915 -0.000108084 -4.47941e-06 22.4757 5.53397 -7.97198 -2.19248 -6.46944 -1.22534e-07 -177.664 3.34224 -16.026 39.0811 -6.73843e-06 -1.23785e-05 -0.0426354 0.0473047 44.7033 40.9854 -6.48686e-06 -1.26872e-05 -6.27147 -4.71784 -55.0651 11.7543 -2.30145e-07 3.05095e-06 0.472054 -0.576021 -22.005 -2.19251 6.46944 -1.45247e-06 -172.732 6.42149 176.904 -39.0811 -0.00228153 -0.0401928 0.1128 -0.187551 26.7476 -40.9854 7.72618e-06 5.99936e-06 7.2274 -6.61565 -65.1256 -11.7543 -5.6619e-06 -5.58687e-06 0.0944694 -0.0990631 -17.336 
0 0 0 0 0 -0 -4.06607 91.0551 -100.696 89.7846 3.11366 9.17411 15.7357 5.1072e-06 -5.51765e-07 96.1165 77.1647 -94.4198 8.98455 -0.406207 -4.3199e-07 17.7332 2.83325 2.95829 16.3773 -1.3905e-06 -6.99897e-07 0.463884 10.8497 -1.80083 6.45672 -1.25837e-06 -1.02172e-07 3.09664 13.0671 -6.87872 12.9942 -0.242716 4.98039 -89.5887 -4.69782 -99.9911 5.34809 -7.22636e-06 -6.2814e-07 -82.8156 19.1365 -2.33103 24.3286 1.87007e-05 4.90208e-06 24.7181 -13.4898 -116.873 22.2916 -9.88446e-07 4.63217e-06 14.8617 5.31327 -0.302477 12.9945 -0.242716 -4.98039 90.0116 -2.86207 -104.768 -5.34813 -1.25947e-06 -3.79883e-06 -78.4351 22.6092 4.52631 -24.3289 0.000322201 -8.65921e-06 21.71 -8.62895 -110.648 -22.2915 -0.000108084 -4.47941e-06 22.5728 5.53037 -7.81109 -2.19248 -6.46944 -1.22534e-07 -177.816 3.9094 -15.9878 39.0811 -6.73843e-06 -1.23785e-05 -0.0361799 0.0489578 38.4324 40.9854 -6.48686e-06 -1.26872e-05 -5.48227 -4.74824 -55.4108 11.7543 -2.30145e-07 3.05095e-06 0.45921 -0.558802 -21.8486 -2.19251 6.46944 -1.45247e-06 -172.781 6.02076 177.187 -39.0811 -0.00228153 -0.0401928 0.101576 -0.17128 26.3086 -40.9854 7.72618e-06 5.99936e-06 7.08296 -6.84283 -65.3328 -11.7543 -5.6619e-06 -5.58687e-06 0.0868932 -0.09101 -17.2744 
0 0 0 0 0 -0 -3.9418 91.0892 -100.019 89.7668 2.8641 8.828 15.7357 5.1072e-06 -5.51765e-07 96.4404 77.0179 -94.5742 8.98455 -0.406207 -4.3199e-07 18.0044 3.02485 3.26135 16.3773 -1.3905e-06 -6.99897e-07 0.389736 10.7686 -2.04715 6.45672 -1.25837e-06 -1.02172e-07 2.95664 12.8298 -7.14389 12.9942 -0.242716 4.98039 -89.5828 -4.78735 -100.013 5.34809 -7.22636e-06 -6.2814e-07 -82.791 19.2944 -2.40191 24.3286 1.87007e-05 4.90208e-06 24.658 -13.5208 -116.99 22.2916 -9.88446e-07 4.63217e-06 14.967 5.3176 -0.426581 12.9945 -0.242716 -4.98039 90.0074 -2.95475 -104.857 -5.34813 -1.25947e-06 -3.79883e-06 -78.5157 22.651 4.48698 -24.3289 0.000322201 -8.65921e-06 21.8163 -8.64593 -110.583 -22.2915 -0.000108084 -4.47941e-06 22.6778 5.52999 -7.7933 -2.19248 -6.46944 -1.22534e-07 -177.869 4.58726 -15.6472 39.0811 -6.73843e-06 -1.23785e-05 -0.0233182 0.0461399 32.0834 40.9854 -6.48686e-06 -1.26872e-05 -5.05288 -4.77519 -55.3548 11.7543 -2.30145e-07 3.05095e-06 0.465215 -0.566859 -21.9218 -2.19251 6.46944 -1.45247e-06 -172.726 5.41678 177.472 -39.0811 -0.00228153 -0.0401928 0.0872765 -0.145622 26.0362 -40.9854 7.72618e-06 5.99936e-06 6.87412 -7.24664 -65.62 -11.7543 -5.6619e-06 -5.58687e-06 0.0779759 -0.0815582 -17.2021 
0 0 0 0 0 -0 -3.76735 91.0978 -99.2613 89.7439 2.5963 8.52244 15.7357 5.1072e-06 -5.51765e-07 96.6827 76.8681 -94.6543 8.98455 -0.406207 -4.3199e-07 18.2847 3.18381 3.55386 16.3773 -1.3905e-06 -6.99897e-07 0.364146 10.7028 -2.33312 6.45672 -1.25837e-06 -1.02172e-07 2.87049 12.5459 -7.29487 12.9942 -0.242716 4.98039 -89.5808 -4.82093 -100.024 5.34809 -7.22636e-06 -6.2814e-07 -82.8065 19.3686 -2.37309 24.3286 1.87007e-05 4.90208e-06 24.6129 -13.5253 -117.045 22.2916 -9.88446e-07 4.63217e-06 15.1161 5.31928 -0.474478 12.9945 -0.242716 -4.98039 90.0053 -3.00007 -104.899 -5.34813 -1.25947e-06 -3.79883e-06 -78.4495 22.8789 4.26469 -24.3289 0.000322201 -8.65921e-06 21.759 -8.60071 -110.54 -22.2915 -0.000108084 -4.47941e-06 22.5736 5.53048 -7.81529 -2.19248 -6.46944 -1.22534e-07 -178.033 4.53043 -15.3225 39.0811 -6.73843e-06 -1.23785e-05 -0.0144273 0.0414672 26.4746 40.9854 -6.48686e-06 -1.26872e-05 -4.31251 -4.12728 -55.1066 11.7543 -2.30145e-07 3.05095e-06 0.469326 -0.572367 -21.9718 -2.19251 6.46944 -1.45247e-06 -172.67 4.65923 177.793 -39.0811 -0.00228153 -0.0401928 0.0816147 -0.13512 25.8923 -40.9854 7.72618e-06 5.99936e-06 6.60531 -7.72958 -66.0171 -11.7543 -5.6619e-06 -5.58687e-06 0.0480497 -0.0500456 -16.9601 
